<mxfile host="Electron" modified="2024-05-06T19:35:01.691Z" agent="Mozilla/5.0 (Windows NT 10.0; Win64; x64) AppleWebKit/537.36 (KHTML, like Gecko) draw.io/24.0.4 Chrome/120.0.6099.109 Electron/28.1.0 Safari/537.36" etag="wrfFHyvtNis2aeO_-Ow4" version="24.0.4" type="device">
  <diagram name="Page-1" id="DtB6SDKfYZl0yXzNMz0N">
    <mxGraphModel dx="1434" dy="836" grid="1" gridSize="10" guides="1" tooltips="1" connect="1" arrows="1" fold="1" page="1" pageScale="1" pageWidth="850" pageHeight="1100" math="0" shadow="0">
      <root>
        <mxCell id="0" />
        <mxCell id="1" parent="0" />
        <mxCell id="53lKiQgnNm_ZMRNBrIJL-1" value="Khách hàng" style="shape=umlActor;verticalLabelPosition=bottom;verticalAlign=top;html=1;outlineConnect=0;" parent="1" vertex="1">
          <mxGeometry x="50" y="10" width="40" height="70" as="geometry" />
        </mxCell>
        <mxCell id="53lKiQgnNm_ZMRNBrIJL-2" value="GUI" style="rounded=1;whiteSpace=wrap;html=1;fontSize=16;" parent="1" vertex="1">
          <mxGeometry x="210" y="15" width="120" height="60" as="geometry" />
        </mxCell>
        <mxCell id="53lKiQgnNm_ZMRNBrIJL-3" value="Controller" style="rounded=1;whiteSpace=wrap;html=1;fontSize=16;" parent="1" vertex="1">
          <mxGeometry x="425" y="10" width="120" height="60" as="geometry" />
        </mxCell>
        <mxCell id="53lKiQgnNm_ZMRNBrIJL-4" value="Database" style="rounded=1;whiteSpace=wrap;html=1;fontSize=16;" parent="1" vertex="1">
          <mxGeometry x="620" y="10" width="120" height="60" as="geometry" />
        </mxCell>
        <mxCell id="53lKiQgnNm_ZMRNBrIJL-5" value="" style="endArrow=none;dashed=1;html=1;rounded=0;entryX=0.5;entryY=0.5;entryDx=0;entryDy=0;entryPerimeter=0;" parent="1" target="53lKiQgnNm_ZMRNBrIJL-1" edge="1">
          <mxGeometry width="50" height="50" relative="1" as="geometry">
            <mxPoint x="70" y="620" as="sourcePoint" />
            <mxPoint x="80" y="190" as="targetPoint" />
          </mxGeometry>
        </mxCell>
        <mxCell id="53lKiQgnNm_ZMRNBrIJL-6" value="" style="endArrow=none;dashed=1;html=1;rounded=0;entryX=0.5;entryY=1;entryDx=0;entryDy=0;" parent="1" source="53lKiQgnNm_ZMRNBrIJL-11" target="53lKiQgnNm_ZMRNBrIJL-2" edge="1">
          <mxGeometry width="50" height="50" relative="1" as="geometry">
            <mxPoint x="269.5" y="635" as="sourcePoint" />
            <mxPoint x="270" y="120" as="targetPoint" />
          </mxGeometry>
        </mxCell>
        <mxCell id="53lKiQgnNm_ZMRNBrIJL-7" value="" style="endArrow=none;dashed=1;html=1;rounded=0;entryX=0.5;entryY=1;entryDx=0;entryDy=0;" parent="1" source="53lKiQgnNm_ZMRNBrIJL-13" target="53lKiQgnNm_ZMRNBrIJL-3" edge="1">
          <mxGeometry width="50" height="50" relative="1" as="geometry">
            <mxPoint x="484.5" y="635" as="sourcePoint" />
            <mxPoint x="485" y="90" as="targetPoint" />
          </mxGeometry>
        </mxCell>
        <mxCell id="53lKiQgnNm_ZMRNBrIJL-8" value="" style="endArrow=none;dashed=1;html=1;rounded=0;entryX=0.5;entryY=1;entryDx=0;entryDy=0;" parent="1" source="53lKiQgnNm_ZMRNBrIJL-15" target="53lKiQgnNm_ZMRNBrIJL-4" edge="1">
          <mxGeometry width="50" height="50" relative="1" as="geometry">
            <mxPoint x="679.5" y="625" as="sourcePoint" />
            <mxPoint x="680" y="110" as="targetPoint" />
          </mxGeometry>
        </mxCell>
        <mxCell id="53lKiQgnNm_ZMRNBrIJL-17" style="edgeStyle=orthogonalEdgeStyle;rounded=0;orthogonalLoop=1;jettySize=auto;html=1;exitX=0.75;exitY=1;exitDx=0;exitDy=0;entryX=0.75;entryY=0;entryDx=0;entryDy=0;" parent="1" edge="1">
          <mxGeometry relative="1" as="geometry">
            <mxPoint x="75" y="140" as="sourcePoint" />
            <mxPoint x="265" y="139.99999999999977" as="targetPoint" />
          </mxGeometry>
        </mxCell>
        <mxCell id="53lKiQgnNm_ZMRNBrIJL-43" value="Vào giỏ hàng" style="edgeLabel;html=1;align=center;verticalAlign=middle;resizable=0;points=[];" parent="53lKiQgnNm_ZMRNBrIJL-17" vertex="1" connectable="0">
          <mxGeometry x="-0.1347" y="-1" relative="1" as="geometry">
            <mxPoint as="offset" />
          </mxGeometry>
        </mxCell>
        <mxCell id="53lKiQgnNm_ZMRNBrIJL-10" value="" style="rounded=0;whiteSpace=wrap;html=1;rotation=-90;" parent="1" vertex="1">
          <mxGeometry x="-397.5" y="567.5" width="935" height="10" as="geometry" />
        </mxCell>
        <mxCell id="53lKiQgnNm_ZMRNBrIJL-12" value="" style="endArrow=none;dashed=1;html=1;rounded=0;entryX=0.5;entryY=1;entryDx=0;entryDy=0;" parent="1" target="53lKiQgnNm_ZMRNBrIJL-11" edge="1">
          <mxGeometry width="50" height="50" relative="1" as="geometry">
            <mxPoint x="269.5" y="635" as="sourcePoint" />
            <mxPoint x="270" y="75" as="targetPoint" />
          </mxGeometry>
        </mxCell>
        <mxCell id="53lKiQgnNm_ZMRNBrIJL-18" style="edgeStyle=orthogonalEdgeStyle;rounded=0;orthogonalLoop=1;jettySize=auto;html=1;entryX=0.883;entryY=0;entryDx=0;entryDy=0;entryPerimeter=0;exitX=0.935;exitY=1.248;exitDx=0;exitDy=0;exitPerimeter=0;" parent="1" source="53lKiQgnNm_ZMRNBrIJL-11" edge="1">
          <mxGeometry relative="1" as="geometry">
            <mxPoint x="280" y="151" as="sourcePoint" />
            <mxPoint x="479.9999999999999" y="151.15999999999985" as="targetPoint" />
            <Array as="points">
              <mxPoint x="275" y="152" />
              <mxPoint x="275" y="150" />
              <mxPoint x="378" y="150" />
              <mxPoint x="378" y="151" />
            </Array>
          </mxGeometry>
        </mxCell>
        <mxCell id="53lKiQgnNm_ZMRNBrIJL-44" value="[Yêu cầu xem giỏ hàng]" style="edgeLabel;html=1;align=center;verticalAlign=middle;resizable=0;points=[];" parent="53lKiQgnNm_ZMRNBrIJL-18" vertex="1" connectable="0">
          <mxGeometry x="-0.028" y="-2" relative="1" as="geometry">
            <mxPoint y="-3" as="offset" />
          </mxGeometry>
        </mxCell>
        <mxCell id="53lKiQgnNm_ZMRNBrIJL-11" value="" style="rounded=0;whiteSpace=wrap;html=1;rotation=-90;" parent="1" vertex="1">
          <mxGeometry x="-220" y="590" width="980" height="10" as="geometry" />
        </mxCell>
        <mxCell id="53lKiQgnNm_ZMRNBrIJL-14" value="" style="endArrow=none;dashed=1;html=1;rounded=0;entryX=0.5;entryY=1;entryDx=0;entryDy=0;" parent="1" target="53lKiQgnNm_ZMRNBrIJL-13" edge="1">
          <mxGeometry width="50" height="50" relative="1" as="geometry">
            <mxPoint x="484.5" y="635" as="sourcePoint" />
            <mxPoint x="485" y="70" as="targetPoint" />
          </mxGeometry>
        </mxCell>
        <mxCell id="53lKiQgnNm_ZMRNBrIJL-13" value="" style="rounded=0;whiteSpace=wrap;html=1;rotation=-90;" parent="1" vertex="1">
          <mxGeometry x="18.75" y="566.25" width="932.5" height="10" as="geometry" />
        </mxCell>
        <mxCell id="53lKiQgnNm_ZMRNBrIJL-16" value="" style="endArrow=none;dashed=1;html=1;rounded=0;entryX=0.5;entryY=1;entryDx=0;entryDy=0;" parent="1" target="53lKiQgnNm_ZMRNBrIJL-15" edge="1">
          <mxGeometry width="50" height="50" relative="1" as="geometry">
            <mxPoint x="679.5" y="625" as="sourcePoint" />
            <mxPoint x="680" y="70" as="targetPoint" />
          </mxGeometry>
        </mxCell>
        <mxCell id="53lKiQgnNm_ZMRNBrIJL-15" value="" style="rounded=0;whiteSpace=wrap;html=1;rotation=-90;" parent="1" vertex="1">
          <mxGeometry x="232.5" y="577.5" width="895" height="10" as="geometry" />
        </mxCell>
        <mxCell id="53lKiQgnNm_ZMRNBrIJL-19" style="edgeStyle=orthogonalEdgeStyle;rounded=0;orthogonalLoop=1;jettySize=auto;html=1;" parent="1" edge="1">
          <mxGeometry relative="1" as="geometry">
            <mxPoint x="490" y="160" as="sourcePoint" />
            <mxPoint x="674.33" y="160" as="targetPoint" />
            <Array as="points">
              <mxPoint x="674.33" y="160" />
            </Array>
          </mxGeometry>
        </mxCell>
        <mxCell id="53lKiQgnNm_ZMRNBrIJL-46" value="[Yêu cầu xem giỏ hàng]" style="edgeLabel;html=1;align=center;verticalAlign=middle;resizable=0;points=[];" parent="53lKiQgnNm_ZMRNBrIJL-19" vertex="1" connectable="0">
          <mxGeometry x="0.0608" y="2" relative="1" as="geometry">
            <mxPoint as="offset" />
          </mxGeometry>
        </mxCell>
        <mxCell id="53lKiQgnNm_ZMRNBrIJL-20" style="edgeStyle=orthogonalEdgeStyle;rounded=0;orthogonalLoop=1;jettySize=auto;html=1;exitX=0.886;exitY=1.056;exitDx=0;exitDy=0;exitPerimeter=0;entryX=0.947;entryY=-0.096;entryDx=0;entryDy=0;entryPerimeter=0;dashed=1;startArrow=classic;startFill=1;endArrow=none;endFill=0;" parent="1" edge="1">
          <mxGeometry relative="1" as="geometry">
            <mxPoint x="491" y="194" as="sourcePoint" />
            <mxPoint x="674" y="194" as="targetPoint" />
            <Array as="points" />
          </mxGeometry>
        </mxCell>
        <mxCell id="53lKiQgnNm_ZMRNBrIJL-35" value="[Không có sản phẩm&amp;nbsp;&lt;div&gt;được thêm vào giỏ hàng]&lt;/div&gt;" style="edgeLabel;html=1;align=center;verticalAlign=middle;resizable=0;points=[];" parent="53lKiQgnNm_ZMRNBrIJL-20" vertex="1" connectable="0">
          <mxGeometry x="0.01" relative="1" as="geometry">
            <mxPoint as="offset" />
          </mxGeometry>
        </mxCell>
        <mxCell id="53lKiQgnNm_ZMRNBrIJL-23" style="edgeStyle=orthogonalEdgeStyle;rounded=0;orthogonalLoop=1;jettySize=auto;html=1;entryX=0.883;entryY=0;entryDx=0;entryDy=0;entryPerimeter=0;exitX=0.904;exitY=1.039;exitDx=0;exitDy=0;exitPerimeter=0;dashed=1;startArrow=classic;startFill=1;endArrow=none;endFill=0;" parent="1" edge="1">
          <mxGeometry relative="1" as="geometry">
            <mxPoint x="275" y="205" as="sourcePoint" />
            <mxPoint x="479.9999999999999" y="205.15999999999985" as="targetPoint" />
            <Array as="points" />
          </mxGeometry>
        </mxCell>
        <mxCell id="53lKiQgnNm_ZMRNBrIJL-36" value="[Không có sản phẩm&amp;nbsp;&lt;div&gt;được thêm vào giỏ hàng]&lt;/div&gt;" style="edgeLabel;html=1;align=center;verticalAlign=middle;resizable=0;points=[];" parent="53lKiQgnNm_ZMRNBrIJL-23" vertex="1" connectable="0">
          <mxGeometry x="-0.1519" y="2" relative="1" as="geometry">
            <mxPoint x="9" as="offset" />
          </mxGeometry>
        </mxCell>
        <mxCell id="53lKiQgnNm_ZMRNBrIJL-26" style="edgeStyle=orthogonalEdgeStyle;rounded=0;orthogonalLoop=1;jettySize=auto;html=1;exitX=0.886;exitY=1.056;exitDx=0;exitDy=0;exitPerimeter=0;entryX=0.947;entryY=-0.096;entryDx=0;entryDy=0;entryPerimeter=0;dashed=1;startArrow=classic;startFill=1;endArrow=none;endFill=0;" parent="1" edge="1">
          <mxGeometry relative="1" as="geometry">
            <mxPoint x="492" y="250" as="sourcePoint" />
            <mxPoint x="675" y="250" as="targetPoint" />
            <Array as="points" />
          </mxGeometry>
        </mxCell>
        <mxCell id="53lKiQgnNm_ZMRNBrIJL-37" value="[Gửi thông tin các sản phẩm]" style="edgeLabel;html=1;align=center;verticalAlign=middle;resizable=0;points=[];" parent="53lKiQgnNm_ZMRNBrIJL-26" vertex="1" connectable="0">
          <mxGeometry x="0.082" y="-1" relative="1" as="geometry">
            <mxPoint as="offset" />
          </mxGeometry>
        </mxCell>
        <mxCell id="53lKiQgnNm_ZMRNBrIJL-27" style="edgeStyle=orthogonalEdgeStyle;rounded=0;orthogonalLoop=1;jettySize=auto;html=1;entryX=0.883;entryY=0;entryDx=0;entryDy=0;entryPerimeter=0;exitX=0.904;exitY=1.039;exitDx=0;exitDy=0;exitPerimeter=0;dashed=1;startArrow=classic;startFill=1;endArrow=none;endFill=0;" parent="1" edge="1">
          <mxGeometry relative="1" as="geometry">
            <mxPoint x="276" y="261" as="sourcePoint" />
            <mxPoint x="480.9999999999999" y="261.15999999999985" as="targetPoint" />
            <Array as="points" />
          </mxGeometry>
        </mxCell>
        <mxCell id="53lKiQgnNm_ZMRNBrIJL-28" style="edgeStyle=orthogonalEdgeStyle;rounded=0;orthogonalLoop=1;jettySize=auto;html=1;exitX=0.75;exitY=1;exitDx=0;exitDy=0;entryX=0.75;entryY=0;entryDx=0;entryDy=0;dashed=1;startArrow=classic;startFill=1;endArrow=none;endFill=0;" parent="1" edge="1">
          <mxGeometry relative="1" as="geometry">
            <mxPoint x="75" y="294" as="sourcePoint" />
            <mxPoint x="265" y="293.9999999999998" as="targetPoint" />
          </mxGeometry>
        </mxCell>
        <mxCell id="53lKiQgnNm_ZMRNBrIJL-39" value="[Hiển thị giao diện giỏ hàng]" style="edgeLabel;html=1;align=center;verticalAlign=middle;resizable=0;points=[];" parent="53lKiQgnNm_ZMRNBrIJL-28" vertex="1" connectable="0">
          <mxGeometry x="-0.0475" y="-1" relative="1" as="geometry">
            <mxPoint x="5" y="-3" as="offset" />
          </mxGeometry>
        </mxCell>
        <mxCell id="53lKiQgnNm_ZMRNBrIJL-29" value="alt" style="shape=umlFrame;whiteSpace=wrap;html=1;pointerEvents=0;width=50;height=20;" parent="1" vertex="1">
          <mxGeometry x="190" y="170" width="540" height="110" as="geometry" />
        </mxCell>
        <mxCell id="53lKiQgnNm_ZMRNBrIJL-32" value="" style="endArrow=none;dashed=1;html=1;rounded=0;exitX=0.003;exitY=0.488;exitDx=0;exitDy=0;exitPerimeter=0;" parent="1" source="53lKiQgnNm_ZMRNBrIJL-29" edge="1">
          <mxGeometry width="50" height="50" relative="1" as="geometry">
            <mxPoint x="470" y="390" as="sourcePoint" />
            <mxPoint x="730" y="221" as="targetPoint" />
          </mxGeometry>
        </mxCell>
        <mxCell id="53lKiQgnNm_ZMRNBrIJL-38" value="[Gửi thông tin các sản phẩm]" style="edgeLabel;html=1;align=center;verticalAlign=middle;resizable=0;points=[];" parent="1" vertex="1" connectable="0">
          <mxGeometry x="380.00034482758605" y="261" as="geometry" />
        </mxCell>
        <mxCell id="53lKiQgnNm_ZMRNBrIJL-40" style="edgeStyle=orthogonalEdgeStyle;rounded=0;orthogonalLoop=1;jettySize=auto;html=1;exitX=0.75;exitY=1;exitDx=0;exitDy=0;entryX=0.75;entryY=0;entryDx=0;entryDy=0;" parent="1" edge="1">
          <mxGeometry relative="1" as="geometry">
            <mxPoint x="75" y="319.31" as="sourcePoint" />
            <mxPoint x="265" y="319.3099999999998" as="targetPoint" />
          </mxGeometry>
        </mxCell>
        <mxCell id="53lKiQgnNm_ZMRNBrIJL-47" value="[Yêu cầu thanh toán]" style="edgeLabel;html=1;align=center;verticalAlign=middle;resizable=0;points=[];" parent="53lKiQgnNm_ZMRNBrIJL-40" vertex="1" connectable="0">
          <mxGeometry x="-0.1419" relative="1" as="geometry">
            <mxPoint x="14" as="offset" />
          </mxGeometry>
        </mxCell>
        <mxCell id="53lKiQgnNm_ZMRNBrIJL-41" value="&lt;span style=&quot;color: rgb(0, 0, 0); font-family: Helvetica; font-size: 11px; font-style: normal; font-variant-ligatures: normal; font-variant-caps: normal; font-weight: 400; letter-spacing: normal; orphans: 2; text-align: center; text-indent: 0px; text-transform: none; widows: 2; word-spacing: 0px; -webkit-text-stroke-width: 0px; white-space: nowrap; background-color: rgb(255, 255, 255); text-decoration-thickness: initial; text-decoration-style: initial; text-decoration-color: initial; display: inline !important; float: none;&quot;&gt;[Yêu cầu thanh toán]&lt;/span&gt;" style="edgeStyle=orthogonalEdgeStyle;rounded=0;orthogonalLoop=1;jettySize=auto;html=1;entryX=0.883;entryY=0;entryDx=0;entryDy=0;entryPerimeter=0;exitX=0.904;exitY=1.039;exitDx=0;exitDy=0;exitPerimeter=0;" parent="1" edge="1">
          <mxGeometry relative="1" as="geometry">
            <mxPoint x="275" y="330.31" as="sourcePoint" />
            <mxPoint x="479.9999999999999" y="330.46999999999986" as="targetPoint" />
            <Array as="points" />
          </mxGeometry>
        </mxCell>
        <mxCell id="53lKiQgnNm_ZMRNBrIJL-54" style="edgeStyle=orthogonalEdgeStyle;rounded=0;orthogonalLoop=1;jettySize=auto;html=1;entryX=0.883;entryY=0;entryDx=0;entryDy=0;entryPerimeter=0;dashed=1;startArrow=classic;startFill=1;endArrow=none;endFill=0;" parent="1" edge="1">
          <mxGeometry relative="1" as="geometry">
            <mxPoint x="280" y="360" as="sourcePoint" />
            <mxPoint x="482.4999999999999" y="360.15999999999985" as="targetPoint" />
            <Array as="points" />
          </mxGeometry>
        </mxCell>
        <mxCell id="53lKiQgnNm_ZMRNBrIJL-60" value="[Hiển thị giao diện thanh&amp;nbsp; toán]" style="edgeLabel;html=1;align=center;verticalAlign=middle;resizable=0;points=[];" parent="53lKiQgnNm_ZMRNBrIJL-54" vertex="1" connectable="0">
          <mxGeometry x="-0.0562" y="-1" relative="1" as="geometry">
            <mxPoint x="6" y="-2" as="offset" />
          </mxGeometry>
        </mxCell>
        <mxCell id="53lKiQgnNm_ZMRNBrIJL-58" style="edgeStyle=orthogonalEdgeStyle;rounded=0;orthogonalLoop=1;jettySize=auto;html=1;entryX=0.722;entryY=0.094;entryDx=0;entryDy=0;entryPerimeter=0;dashed=1;endArrow=none;endFill=0;startArrow=classic;startFill=1;" parent="1" target="53lKiQgnNm_ZMRNBrIJL-11" edge="1">
          <mxGeometry relative="1" as="geometry">
            <mxPoint x="80" y="370" as="sourcePoint" />
            <mxPoint x="260" y="369.9999999999998" as="targetPoint" />
            <Array as="points">
              <mxPoint x="262" y="370" />
              <mxPoint x="262" y="377" />
            </Array>
          </mxGeometry>
        </mxCell>
        <mxCell id="53lKiQgnNm_ZMRNBrIJL-59" value="[Hiển thị giao diện thanh toán]" style="edgeLabel;html=1;align=center;verticalAlign=middle;resizable=0;points=[];" parent="53lKiQgnNm_ZMRNBrIJL-58" vertex="1" connectable="0">
          <mxGeometry x="-0.1347" y="-1" relative="1" as="geometry">
            <mxPoint x="12" as="offset" />
          </mxGeometry>
        </mxCell>
        <mxCell id="53lKiQgnNm_ZMRNBrIJL-63" style="edgeStyle=orthogonalEdgeStyle;rounded=0;orthogonalLoop=1;jettySize=auto;html=1;exitX=0.75;exitY=1;exitDx=0;exitDy=0;entryX=0.75;entryY=0;entryDx=0;entryDy=0;" parent="1" edge="1">
          <mxGeometry relative="1" as="geometry">
            <mxPoint x="75" y="410" as="sourcePoint" />
            <mxPoint x="265" y="409.9999999999998" as="targetPoint" />
          </mxGeometry>
        </mxCell>
        <mxCell id="53lKiQgnNm_ZMRNBrIJL-64" value="Nhập thông tin và chọn&lt;br&gt;phương thức thanh toán" style="edgeLabel;html=1;align=center;verticalAlign=middle;resizable=0;points=[];" parent="53lKiQgnNm_ZMRNBrIJL-63" vertex="1" connectable="0">
          <mxGeometry x="-0.1419" relative="1" as="geometry">
            <mxPoint x="14" as="offset" />
          </mxGeometry>
        </mxCell>
        <mxCell id="53lKiQgnNm_ZMRNBrIJL-70" value="Gửi thông tin và địa chỉ nhận hàng" style="edgeStyle=orthogonalEdgeStyle;rounded=0;orthogonalLoop=1;jettySize=auto;html=1;entryX=0.883;entryY=0;entryDx=0;entryDy=0;entryPerimeter=0;exitX=0.904;exitY=1.039;exitDx=0;exitDy=0;exitPerimeter=0;" parent="1" edge="1">
          <mxGeometry relative="1" as="geometry">
            <mxPoint x="276.5" y="450" as="sourcePoint" />
            <mxPoint x="481.4999999999999" y="450.15999999999985" as="targetPoint" />
            <Array as="points" />
          </mxGeometry>
        </mxCell>
        <mxCell id="53lKiQgnNm_ZMRNBrIJL-71" value="Gửi thông tin và địa chỉ&amp;nbsp;&lt;div&gt;nhận hàng&lt;/div&gt;" style="edgeStyle=orthogonalEdgeStyle;rounded=0;orthogonalLoop=1;jettySize=auto;html=1;exitX=0.904;exitY=1.039;exitDx=0;exitDy=0;exitPerimeter=0;entryX=0.386;entryY=-0.133;entryDx=0;entryDy=0;entryPerimeter=0;" parent="1" edge="1">
          <mxGeometry relative="1" as="geometry">
            <mxPoint x="490" y="460" as="sourcePoint" />
            <mxPoint x="673.6699999999998" y="459.72" as="targetPoint" />
            <Array as="points" />
          </mxGeometry>
        </mxCell>
        <mxCell id="53lKiQgnNm_ZMRNBrIJL-72" value="Thanh toán" style="shape=umlFrame;whiteSpace=wrap;html=1;pointerEvents=0;width=90;height=20;" parent="1" vertex="1">
          <mxGeometry x="10" y="430" width="720" height="450" as="geometry" />
        </mxCell>
        <mxCell id="53lKiQgnNm_ZMRNBrIJL-74" value="" style="endArrow=none;dashed=1;html=1;rounded=0;exitX=0.002;exitY=0.482;exitDx=0;exitDy=0;exitPerimeter=0;entryX=0.998;entryY=0.469;entryDx=0;entryDy=0;entryPerimeter=0;" parent="1" edge="1">
          <mxGeometry width="50" height="50" relative="1" as="geometry">
            <mxPoint x="11.440000000000055" y="554.0299999999999" as="sourcePoint" />
            <mxPoint x="728.5600000000004" y="549.9999999999999" as="targetPoint" />
          </mxGeometry>
        </mxCell>
        <mxCell id="53lKiQgnNm_ZMRNBrIJL-75" style="edgeStyle=orthogonalEdgeStyle;rounded=0;orthogonalLoop=1;jettySize=auto;html=1;exitX=0.886;exitY=1.056;exitDx=0;exitDy=0;exitPerimeter=0;entryX=0.947;entryY=-0.096;entryDx=0;entryDy=0;entryPerimeter=0;dashed=1;startArrow=classic;startFill=1;endArrow=none;endFill=0;" parent="1" edge="1">
          <mxGeometry relative="1" as="geometry">
            <mxPoint x="489.5" y="490" as="sourcePoint" />
            <mxPoint x="672.5" y="490" as="targetPoint" />
            <Array as="points" />
          </mxGeometry>
        </mxCell>
        <mxCell id="53lKiQgnNm_ZMRNBrIJL-76" value="Đặt hàng thành công" style="edgeLabel;html=1;align=center;verticalAlign=middle;resizable=0;points=[];" parent="53lKiQgnNm_ZMRNBrIJL-75" vertex="1" connectable="0">
          <mxGeometry x="0.082" y="-1" relative="1" as="geometry">
            <mxPoint as="offset" />
          </mxGeometry>
        </mxCell>
        <mxCell id="53lKiQgnNm_ZMRNBrIJL-77" style="edgeStyle=orthogonalEdgeStyle;rounded=0;orthogonalLoop=1;jettySize=auto;html=1;entryX=0.883;entryY=0;entryDx=0;entryDy=0;entryPerimeter=0;dashed=1;startArrow=classic;startFill=1;endArrow=none;endFill=0;" parent="1" edge="1">
          <mxGeometry relative="1" as="geometry">
            <mxPoint x="280" y="501" as="sourcePoint" />
            <mxPoint x="478.4999999999999" y="501.15999999999985" as="targetPoint" />
            <Array as="points" />
          </mxGeometry>
        </mxCell>
        <mxCell id="53lKiQgnNm_ZMRNBrIJL-79" value="Đặt hàng thành công" style="edgeLabel;html=1;align=center;verticalAlign=middle;resizable=0;points=[];" parent="1" vertex="1" connectable="0">
          <mxGeometry x="380.00034482758605" y="501" as="geometry" />
        </mxCell>
        <mxCell id="53lKiQgnNm_ZMRNBrIJL-82" style="edgeStyle=orthogonalEdgeStyle;rounded=0;orthogonalLoop=1;jettySize=auto;html=1;entryX=0.63;entryY=-0.297;entryDx=0;entryDy=0;entryPerimeter=0;dashed=1;endArrow=none;endFill=0;startArrow=classic;startFill=1;" parent="1" edge="1">
          <mxGeometry relative="1" as="geometry">
            <mxPoint x="80" y="510" as="sourcePoint" />
            <mxPoint x="262" y="511" as="targetPoint" />
          </mxGeometry>
        </mxCell>
        <mxCell id="53lKiQgnNm_ZMRNBrIJL-83" value="Thông báo đặt hàng thành công" style="edgeLabel;html=1;align=center;verticalAlign=middle;resizable=0;points=[];" parent="53lKiQgnNm_ZMRNBrIJL-82" vertex="1" connectable="0">
          <mxGeometry x="-0.1347" y="-1" relative="1" as="geometry">
            <mxPoint x="13" y="-2" as="offset" />
          </mxGeometry>
        </mxCell>
        <mxCell id="53lKiQgnNm_ZMRNBrIJL-85" style="edgeStyle=orthogonalEdgeStyle;rounded=0;orthogonalLoop=1;jettySize=auto;html=1;exitX=0.886;exitY=1.056;exitDx=0;exitDy=0;exitPerimeter=0;dashed=1;startArrow=classic;startFill=1;endArrow=none;endFill=0;" parent="1" edge="1">
          <mxGeometry relative="1" as="geometry">
            <mxPoint x="490.67" y="815" as="sourcePoint" />
            <mxPoint x="674" y="815" as="targetPoint" />
            <Array as="points" />
          </mxGeometry>
        </mxCell>
        <mxCell id="53lKiQgnNm_ZMRNBrIJL-87" style="edgeStyle=orthogonalEdgeStyle;rounded=0;orthogonalLoop=1;jettySize=auto;html=1;entryX=0.883;entryY=0;entryDx=0;entryDy=0;entryPerimeter=0;dashed=1;startArrow=classic;startFill=1;endArrow=none;endFill=0;" parent="1" edge="1">
          <mxGeometry relative="1" as="geometry">
            <mxPoint x="281.17" y="823" as="sourcePoint" />
            <mxPoint x="479.6699999999999" y="823.1599999999999" as="targetPoint" />
            <Array as="points" />
          </mxGeometry>
        </mxCell>
        <mxCell id="53lKiQgnNm_ZMRNBrIJL-88" value="Đặt hàng thành công" style="edgeLabel;html=1;align=center;verticalAlign=middle;resizable=0;points=[];" parent="1" vertex="1" connectable="0">
          <mxGeometry x="380.00034482758605" y="823" as="geometry" />
        </mxCell>
        <mxCell id="53lKiQgnNm_ZMRNBrIJL-89" value="Gửi thông tin và địa chỉ nhận hàng" style="edgeStyle=orthogonalEdgeStyle;rounded=0;orthogonalLoop=1;jettySize=auto;html=1;entryX=0.883;entryY=0;entryDx=0;entryDy=0;entryPerimeter=0;exitX=0.904;exitY=1.039;exitDx=0;exitDy=0;exitPerimeter=0;" parent="1" edge="1">
          <mxGeometry relative="1" as="geometry">
            <mxPoint x="277.67" y="580" as="sourcePoint" />
            <mxPoint x="482.6699999999999" y="580.1599999999999" as="targetPoint" />
            <Array as="points" />
          </mxGeometry>
        </mxCell>
        <mxCell id="53lKiQgnNm_ZMRNBrIJL-92" style="edgeStyle=orthogonalEdgeStyle;rounded=0;orthogonalLoop=1;jettySize=auto;html=1;entryX=0.883;entryY=0;entryDx=0;entryDy=0;entryPerimeter=0;dashed=1;startArrow=classic;startFill=1;endArrow=none;endFill=0;" parent="1" edge="1">
          <mxGeometry relative="1" as="geometry">
            <mxPoint x="280.75" y="610" as="sourcePoint" />
            <mxPoint x="479.2499999999999" y="610.1599999999999" as="targetPoint" />
            <Array as="points" />
          </mxGeometry>
        </mxCell>
        <mxCell id="53lKiQgnNm_ZMRNBrIJL-93" value="&lt;font style=&quot;font-size: 11px;&quot;&gt;Hiển thị giao diện thanh toán Online&lt;/font&gt;" style="edgeLabel;html=1;align=center;verticalAlign=middle;resizable=0;points=[];fontSize=11;" parent="1" vertex="1" connectable="0">
          <mxGeometry x="382.75034482758605" y="610" as="geometry" />
        </mxCell>
        <mxCell id="53lKiQgnNm_ZMRNBrIJL-95" style="edgeStyle=orthogonalEdgeStyle;rounded=0;orthogonalLoop=1;jettySize=auto;html=1;entryX=0.63;entryY=-0.297;entryDx=0;entryDy=0;entryPerimeter=0;dashed=1;endArrow=none;endFill=0;startArrow=classic;startFill=1;" parent="1" edge="1">
          <mxGeometry relative="1" as="geometry">
            <mxPoint x="81.17" y="620" as="sourcePoint" />
            <mxPoint x="263.17" y="621" as="targetPoint" />
          </mxGeometry>
        </mxCell>
        <mxCell id="53lKiQgnNm_ZMRNBrIJL-96" value="&lt;font style=&quot;font-size: 10px;&quot;&gt;Hiển thị giao diện thanh toán Online&lt;/font&gt;" style="edgeLabel;html=1;align=center;verticalAlign=middle;resizable=0;points=[];" parent="53lKiQgnNm_ZMRNBrIJL-95" vertex="1" connectable="0">
          <mxGeometry x="-0.1347" y="-1" relative="1" as="geometry">
            <mxPoint x="14" y="-3" as="offset" />
          </mxGeometry>
        </mxCell>
        <mxCell id="53lKiQgnNm_ZMRNBrIJL-97" style="edgeStyle=orthogonalEdgeStyle;rounded=0;orthogonalLoop=1;jettySize=auto;html=1;exitX=0.75;exitY=1;exitDx=0;exitDy=0;entryX=0.75;entryY=0;entryDx=0;entryDy=0;" parent="1" edge="1">
          <mxGeometry relative="1" as="geometry">
            <mxPoint x="75" y="650" as="sourcePoint" />
            <mxPoint x="265" y="649.9999999999998" as="targetPoint" />
          </mxGeometry>
        </mxCell>
        <mxCell id="53lKiQgnNm_ZMRNBrIJL-98" value="Chọn loại thanh toán online và&amp;nbsp;&lt;div&gt;nhập&amp;nbsp; thông tin thanh toán&lt;/div&gt;" style="edgeLabel;html=1;align=center;verticalAlign=middle;resizable=0;points=[];" parent="53lKiQgnNm_ZMRNBrIJL-97" vertex="1" connectable="0">
          <mxGeometry x="-0.1419" relative="1" as="geometry">
            <mxPoint x="14" as="offset" />
          </mxGeometry>
        </mxCell>
        <mxCell id="53lKiQgnNm_ZMRNBrIJL-99" value="Đặt hàng thành công" style="edgeLabel;html=1;align=center;verticalAlign=middle;resizable=0;points=[];" parent="1" vertex="1" connectable="0">
          <mxGeometry x="579.8303448275861" y="814" as="geometry" />
        </mxCell>
        <mxCell id="53lKiQgnNm_ZMRNBrIJL-100" value="" style="edgeStyle=orthogonalEdgeStyle;rounded=0;orthogonalLoop=1;jettySize=auto;html=1;entryX=0.883;entryY=0;entryDx=0;entryDy=0;entryPerimeter=0;exitX=0.904;exitY=1.039;exitDx=0;exitDy=0;exitPerimeter=0;" parent="1" edge="1">
          <mxGeometry relative="1" as="geometry">
            <mxPoint x="277.5" y="663" as="sourcePoint" />
            <mxPoint x="482.4999999999999" y="663.1599999999999" as="targetPoint" />
            <Array as="points" />
          </mxGeometry>
        </mxCell>
        <mxCell id="53lKiQgnNm_ZMRNBrIJL-101" value="Gửi thông tin người dùng nhập&amp;nbsp;" style="edgeLabel;html=1;align=center;verticalAlign=middle;resizable=0;points=[];" parent="53lKiQgnNm_ZMRNBrIJL-100" vertex="1" connectable="0">
          <mxGeometry x="0.0327" y="2" relative="1" as="geometry">
            <mxPoint as="offset" />
          </mxGeometry>
        </mxCell>
        <mxCell id="53lKiQgnNm_ZMRNBrIJL-104" value="Gửi thông tin người dùng nhập&amp;nbsp;" style="edgeStyle=orthogonalEdgeStyle;rounded=0;orthogonalLoop=1;jettySize=auto;html=1;exitX=0.904;exitY=1.039;exitDx=0;exitDy=0;exitPerimeter=0;entryX=0.386;entryY=-0.133;entryDx=0;entryDy=0;entryPerimeter=0;" parent="1" edge="1">
          <mxGeometry relative="1" as="geometry">
            <mxPoint x="489.17" y="680.28" as="sourcePoint" />
            <mxPoint x="672.8399999999998" y="680" as="targetPoint" />
            <Array as="points" />
          </mxGeometry>
        </mxCell>
        <mxCell id="53lKiQgnNm_ZMRNBrIJL-107" value="Phương thức&amp;nbsp;&lt;span style=&quot;background-color: initial;&quot;&gt;thanh toán&lt;/span&gt;" style="shape=umlFrame;whiteSpace=wrap;html=1;pointerEvents=0;width=110;height=30;" parent="1" vertex="1">
          <mxGeometry x="20" y="700" width="690" height="160" as="geometry" />
        </mxCell>
        <mxCell id="53lKiQgnNm_ZMRNBrIJL-108" value="" style="endArrow=none;dashed=1;html=1;rounded=0;exitX=0.002;exitY=0.482;exitDx=0;exitDy=0;exitPerimeter=0;entryX=0.998;entryY=0.469;entryDx=0;entryDy=0;entryPerimeter=0;" parent="1" edge="1">
          <mxGeometry width="50" height="50" relative="1" as="geometry">
            <mxPoint x="11.440000000000055" y="554.0299999999999" as="sourcePoint" />
            <mxPoint x="728.5600000000004" y="549.9999999999999" as="targetPoint" />
          </mxGeometry>
        </mxCell>
        <mxCell id="53lKiQgnNm_ZMRNBrIJL-109" value="" style="endArrow=none;dashed=1;html=1;rounded=0;exitX=0.002;exitY=0.482;exitDx=0;exitDy=0;exitPerimeter=0;entryX=1;entryY=0.533;entryDx=0;entryDy=0;entryPerimeter=0;" parent="1" target="53lKiQgnNm_ZMRNBrIJL-107" edge="1">
          <mxGeometry width="50" height="50" relative="1" as="geometry">
            <mxPoint x="21.440000000000055" y="784.0299999999999" as="sourcePoint" />
            <mxPoint x="708" y="779" as="targetPoint" />
          </mxGeometry>
        </mxCell>
        <mxCell id="53lKiQgnNm_ZMRNBrIJL-110" style="edgeStyle=orthogonalEdgeStyle;rounded=0;orthogonalLoop=1;jettySize=auto;html=1;exitX=0.886;exitY=1.056;exitDx=0;exitDy=0;exitPerimeter=0;entryX=0.947;entryY=-0.096;entryDx=0;entryDy=0;entryPerimeter=0;dashed=1;startArrow=classic;startFill=1;endArrow=none;endFill=0;" parent="1" edge="1">
          <mxGeometry relative="1" as="geometry">
            <mxPoint x="493.25" y="730" as="sourcePoint" />
            <mxPoint x="676.25" y="730" as="targetPoint" />
            <Array as="points" />
          </mxGeometry>
        </mxCell>
        <mxCell id="53lKiQgnNm_ZMRNBrIJL-111" value="Thông tin thanh toán&amp;nbsp;&lt;div&gt;không chính xác&lt;/div&gt;" style="edgeLabel;html=1;align=center;verticalAlign=middle;resizable=0;points=[];" parent="53lKiQgnNm_ZMRNBrIJL-110" vertex="1" connectable="0">
          <mxGeometry x="0.082" y="-1" relative="1" as="geometry">
            <mxPoint as="offset" />
          </mxGeometry>
        </mxCell>
        <mxCell id="53lKiQgnNm_ZMRNBrIJL-112" style="edgeStyle=orthogonalEdgeStyle;rounded=0;orthogonalLoop=1;jettySize=auto;html=1;entryX=0.883;entryY=0;entryDx=0;entryDy=0;entryPerimeter=0;dashed=1;startArrow=classic;startFill=1;endArrow=none;endFill=0;" parent="1" edge="1">
          <mxGeometry relative="1" as="geometry">
            <mxPoint x="281.75" y="741" as="sourcePoint" />
            <mxPoint x="480.2499999999999" y="741.1599999999999" as="targetPoint" />
            <Array as="points" />
          </mxGeometry>
        </mxCell>
        <mxCell id="53lKiQgnNm_ZMRNBrIJL-115" value="Thông tin thanh toán&lt;div&gt;không chính xác&lt;/div&gt;" style="edgeLabel;html=1;align=center;verticalAlign=middle;resizable=0;points=[];" parent="53lKiQgnNm_ZMRNBrIJL-112" vertex="1" connectable="0">
          <mxGeometry x="-0.1115" y="-1" relative="1" as="geometry">
            <mxPoint as="offset" />
          </mxGeometry>
        </mxCell>
        <mxCell id="53lKiQgnNm_ZMRNBrIJL-113" style="edgeStyle=orthogonalEdgeStyle;rounded=0;orthogonalLoop=1;jettySize=auto;html=1;entryX=0.63;entryY=-0.297;entryDx=0;entryDy=0;entryPerimeter=0;dashed=1;endArrow=none;endFill=0;startArrow=classic;startFill=1;" parent="1" edge="1">
          <mxGeometry relative="1" as="geometry">
            <mxPoint x="83.75" y="750" as="sourcePoint" />
            <mxPoint x="265.75" y="751" as="targetPoint" />
          </mxGeometry>
        </mxCell>
        <mxCell id="53lKiQgnNm_ZMRNBrIJL-114" value="Thông báo thông tin thanh toán&amp;nbsp;&lt;div style=&quot;font-size: 10px;&quot;&gt;không chính xác và yêu cầu nhập lại&lt;/div&gt;" style="edgeLabel;html=1;align=center;verticalAlign=middle;resizable=0;points=[];fontSize=10;" parent="53lKiQgnNm_ZMRNBrIJL-113" vertex="1" connectable="0">
          <mxGeometry x="-0.1347" y="-1" relative="1" as="geometry">
            <mxPoint x="15" y="-1" as="offset" />
          </mxGeometry>
        </mxCell>
        <mxCell id="53lKiQgnNm_ZMRNBrIJL-117" style="edgeStyle=orthogonalEdgeStyle;rounded=0;orthogonalLoop=1;jettySize=auto;html=1;entryX=0.63;entryY=-0.297;entryDx=0;entryDy=0;entryPerimeter=0;dashed=1;endArrow=none;endFill=0;startArrow=classic;startFill=1;" parent="1" edge="1">
          <mxGeometry relative="1" as="geometry">
            <mxPoint x="82" y="840" as="sourcePoint" />
            <mxPoint x="264" y="841" as="targetPoint" />
          </mxGeometry>
        </mxCell>
        <mxCell id="53lKiQgnNm_ZMRNBrIJL-118" value="Thông báo đặt hàng thành công" style="edgeLabel;html=1;align=center;verticalAlign=middle;resizable=0;points=[];fontSize=10;" parent="53lKiQgnNm_ZMRNBrIJL-117" vertex="1" connectable="0">
          <mxGeometry x="-0.1347" y="-1" relative="1" as="geometry">
            <mxPoint x="15" y="-1" as="offset" />
          </mxGeometry>
        </mxCell>
        <mxCell id="hPsuCPGD7z8qQdxnSiNi-1" value="&lt;b&gt;Không có&amp;nbsp;&lt;/b&gt;&lt;div&gt;&lt;b&gt;sản phẩm&lt;/b&gt;&lt;/div&gt;" style="text;html=1;align=center;verticalAlign=middle;resizable=0;points=[];autosize=1;strokeColor=none;fillColor=none;" vertex="1" parent="1">
          <mxGeometry x="189" y="186" width="80" height="40" as="geometry" />
        </mxCell>
        <mxCell id="hPsuCPGD7z8qQdxnSiNi-2" value="&lt;b&gt;Có sản&lt;/b&gt;&lt;div&gt;&lt;b&gt;phẩm&lt;/b&gt;&lt;/div&gt;" style="text;html=1;align=center;verticalAlign=middle;resizable=0;points=[];autosize=1;strokeColor=none;fillColor=none;" vertex="1" parent="1">
          <mxGeometry x="198" y="226" width="60" height="40" as="geometry" />
        </mxCell>
        <mxCell id="hPsuCPGD7z8qQdxnSiNi-3" value="Thanh&lt;div&gt;toán&lt;/div&gt;&lt;div&gt;&amp;nbsp;khi&lt;/div&gt;&lt;div&gt;&amp;nbsp;nhậ&lt;span style=&quot;background-color: initial;&quot;&gt;n&lt;/span&gt;&lt;/div&gt;&lt;div&gt;&lt;span style=&quot;background-color: initial;&quot;&gt;&amp;nbsp;hàng&lt;/span&gt;&lt;/div&gt;" style="text;html=1;align=center;verticalAlign=middle;resizable=0;points=[];autosize=1;strokeColor=none;fillColor=none;fontStyle=1" vertex="1" parent="1">
          <mxGeometry y="456" width="60" height="90" as="geometry" />
        </mxCell>
        <mxCell id="hPsuCPGD7z8qQdxnSiNi-5" value="Thanh&lt;div&gt;toán&lt;/div&gt;&lt;div&gt;&amp;nbsp;Online&lt;/div&gt;" style="text;html=1;align=center;verticalAlign=middle;resizable=0;points=[];autosize=1;strokeColor=none;fillColor=none;fontStyle=1" vertex="1" parent="1">
          <mxGeometry x="2" y="592.5" width="60" height="60" as="geometry" />
        </mxCell>
        <mxCell id="hPsuCPGD7z8qQdxnSiNi-6" value="Sai&amp;nbsp;&lt;div&gt;thông&lt;/div&gt;&lt;div&gt;&amp;nbsp;tin&amp;nbsp;&lt;/div&gt;" style="text;html=1;align=center;verticalAlign=middle;resizable=0;points=[];autosize=1;strokeColor=none;fillColor=none;container=1;fontStyle=1" vertex="1" parent="1">
          <mxGeometry x="20" y="723" width="50" height="60" as="geometry" />
        </mxCell>
        <mxCell id="hPsuCPGD7z8qQdxnSiNi-8" value="Thông&lt;div&gt;tin&lt;/div&gt;&lt;div&gt;hợp&lt;/div&gt;&lt;div&gt;lý&lt;/div&gt;" style="text;html=1;align=center;verticalAlign=middle;resizable=0;points=[];autosize=1;strokeColor=none;fillColor=none;container=1;fontStyle=1" vertex="1" parent="1">
          <mxGeometry x="15" y="786" width="60" height="70" as="geometry" />
        </mxCell>
      </root>
    </mxGraphModel>
  </diagram>
</mxfile>
